<svg width="30" height="28" viewBox="0 0 30 28" fill="none" xmlns="http://www.w3.org/2000/svg">
<path d="M28.3333 24.0003C28.7581 24.0008 29.1667 24.1635 29.4756 24.4551C29.7845 24.7467 29.9704 25.1452 29.9953 25.5693C30.0202 25.9934 29.8822 26.411 29.6096 26.7367C29.3369 27.0625 28.9502 27.2718 28.5283 27.322L28.3333 27.3337H1.66667C1.24187 27.3332 0.83328 27.1705 0.524386 26.8789C0.215493 26.5873 0.0296083 26.1887 0.00471314 25.7647C-0.0201821 25.3406 0.117791 24.923 0.390441 24.5973C0.663092 24.2715 1.04984 24.0622 1.47167 24.012L1.66667 24.0003H28.3333ZM28.3333 12.3337C28.7754 12.3337 29.1993 12.5093 29.5118 12.8218C29.8244 13.1344 30 13.5583 30 14.0003C30 14.4424 29.8244 14.8663 29.5118 15.1788C29.1993 15.4914 28.7754 15.667 28.3333 15.667H1.66667C1.22464 15.667 0.800716 15.4914 0.488155 15.1788C0.175595 14.8663 0 14.4424 0 14.0003C0 13.5583 0.175595 13.1344 0.488155 12.8218C0.800716 12.5093 1.22464 12.3337 1.66667 12.3337H28.3333ZM28.3333 0.666992C28.7754 0.666992 29.1993 0.842587 29.5118 1.15515C29.8244 1.46771 30 1.89163 30 2.33366C30 2.77569 29.8244 3.19961 29.5118 3.51217C29.1993 3.82473 28.7754 4.00033 28.3333 4.00033H1.66667C1.22464 4.00033 0.800716 3.82473 0.488155 3.51217C0.175595 3.19961 0 2.77569 0 2.33366C0 1.89163 0.175595 1.46771 0.488155 1.15515C0.800716 0.842587 1.22464 0.666992 1.66667 0.666992H28.3333Z" fill="#171717"/>
</svg>
