<svg width="40" height="40" viewBox="0 0 40 40" fill="none" xmlns="http://www.w3.org/2000/svg">
<g clip-path="url(#clip0_793_18954)">
<path d="M12.3181 7.2627C13.6206 7.2627 14.7754 8.09129 15.1913 9.32441C15.2148 9.3987 15.2528 9.46756 15.3032 9.52697C15.3536 9.58638 15.4153 9.63514 15.4848 9.67041C15.5542 9.70568 15.63 9.72675 15.7077 9.73237C15.7854 9.738 15.8635 9.72808 15.9373 9.70319C16.0111 9.6783 16.0792 9.63894 16.1376 9.58741C16.1961 9.53588 16.2436 9.47322 16.2775 9.40309C16.3115 9.33296 16.3311 9.25678 16.3352 9.17898C16.3393 9.10119 16.3279 9.02336 16.3016 8.95004C15.7248 7.23988 14.1242 6.09082 12.3181 6.09082C10.0006 6.09082 8.11523 7.97652 8.11523 10.2939C8.11523 12.6115 10.0006 14.4969 12.3181 14.4969C14.1241 14.4969 15.7248 13.3479 16.3016 11.6377C16.405 11.3313 16.2405 10.9986 15.9338 10.8955C15.7866 10.8458 15.6257 10.8567 15.4864 10.9256C15.3472 10.9946 15.241 11.116 15.1913 11.2632C14.7754 12.4964 13.6206 13.325 12.3181 13.325C10.647 13.325 9.28711 11.9654 9.28711 10.294C9.28711 8.62254 10.647 7.2627 12.3181 7.2627Z" fill="#FCCF3C"/>
<path d="M21.5433 10.2933C21.5433 7.28733 20.0983 4.61249 17.8662 2.92733C17.849 2.9112 17.8311 2.89602 17.8123 2.88186C14.566 0.471862 10.0955 0.453268 6.82437 2.88186C6.80541 2.89586 6.78736 2.91105 6.77031 2.92733C4.53828 4.6128 3.09328 7.28733 3.09328 10.2933V11.7982H2.13828C1.47914 11.7982 0.943203 12.3344 0.943203 12.9933V16.579C0.943203 17.238 1.47914 17.7741 2.13828 17.7741H3.0932V32.9444C3.0932 33.0998 3.15494 33.2489 3.26482 33.3588C3.3747 33.4686 3.52374 33.5304 3.67914 33.5304C3.83454 33.5304 3.98358 33.4686 4.09346 33.3588C4.20335 33.2489 4.26508 33.0998 4.26508 32.9444V22.66H5.57914V36.9077C5.57914 37.3777 5.19648 37.7601 4.7268 37.7601H4.26508V35.2882C4.26508 35.1328 4.20335 34.9838 4.09346 34.8739C3.98358 34.764 3.83454 34.7023 3.67914 34.7023C3.52374 34.7023 3.3747 34.764 3.26482 34.8739C3.15494 34.9838 3.0932 35.1328 3.0932 35.2882V37.7601H0.664062C0.508662 37.7601 0.359627 37.8218 0.249742 37.9317C0.139858 38.0416 0.078125 38.1906 0.078125 38.346C0.078125 38.5014 0.139858 38.6504 0.249742 38.7603C0.359627 38.8702 0.508662 38.9319 0.664062 38.9319H4.92219C5 38.9319 5.07453 38.9167 5.14281 38.889C6.06016 38.6966 6.75109 37.8815 6.75109 36.9077V22.66H7.14266C7.24983 22.66 7.35496 22.6307 7.4466 22.5751C7.53823 22.5195 7.61286 22.4398 7.66234 22.3448C8.57055 20.6012 10.3546 19.5185 12.3181 19.5185C17.4051 19.5185 21.5433 15.38 21.5433 10.2933ZM7.75938 3.65788C10.502 1.76764 14.1339 1.76733 16.8771 3.65788V4.66569C16.8771 4.9485 16.6821 5.07889 16.5982 5.12194C16.5146 5.1646 16.2958 5.24639 16.0675 5.08194C14.9707 4.29155 13.6743 3.87405 12.3184 3.87405C10.9626 3.87405 9.66586 4.29155 8.56906 5.08186C8.34109 5.24608 8.12195 5.16467 8.03859 5.12194C7.95469 5.07889 7.75969 4.9485 7.75969 4.66569V3.65788H7.75938ZM2.13836 16.6023C2.13221 16.6023 2.1263 16.5998 2.12195 16.5955C2.1176 16.5911 2.11516 16.5852 2.11516 16.579V12.9932C2.11516 12.9804 2.12555 12.9701 2.13836 12.9701H3.09328V16.6023H2.13836ZM12.318 18.3466C10.0366 18.3466 7.95352 19.5414 6.79867 21.488H4.26508V10.2934C4.26508 8.0928 5.15227 6.09577 6.5875 4.64061V4.66561C6.5875 5.30108 6.93906 5.87538 7.5043 6.16499C7.74186 6.28703 8.00503 6.35085 8.27211 6.35116C8.61789 6.35116 8.96117 6.24374 9.25414 6.03288C10.1502 5.3871 11.2097 5.04592 12.3181 5.04592C13.4268 5.04592 14.4864 5.3871 15.3824 6.03288C15.8969 6.40335 16.5671 6.45428 17.132 6.16499C17.6974 5.87538 18.049 5.30108 18.049 4.66569V4.64069C19.4842 6.09569 20.3714 8.0928 20.3714 10.2934C20.3714 14.734 16.7587 18.3467 12.3181 18.3467L12.318 18.3466Z" fill="#FCCF3C"/>
<path d="M33.394 5.67477C33.394 5.6693 33.394 5.66383 33.3937 5.65859V3.06305C33.394 3.05758 33.394 3.05234 33.394 3.04688C33.394 3.04141 33.394 3.03617 33.3937 3.0307V0.585938C33.3937 0.430537 33.332 0.281502 33.2221 0.171617C33.1122 0.0617325 32.9632 0 32.8078 0L25.8992 0C25.5757 0 25.3132 0.2625 25.3132 0.585938V8.82109C25.3132 8.97649 25.375 9.12553 25.4849 9.23541C25.5947 9.3453 25.7438 9.40703 25.8992 9.40703C26.0546 9.40703 26.2036 9.3453 26.3135 9.23541C26.4234 9.12553 26.4851 8.97649 26.4851 8.82109V1.17188H32.2218V2.46094H30.923C30.7676 2.46094 30.6186 2.52267 30.5087 2.63255C30.3988 2.74244 30.3371 2.89147 30.3371 3.04688C30.3371 3.20228 30.3988 3.35131 30.5087 3.4612C30.6186 3.57108 30.7676 3.63281 30.923 3.63281H32.2218V5.08883H30.923C30.8461 5.0888 30.7698 5.10393 30.6987 5.13337C30.6276 5.1628 30.563 5.20596 30.5086 5.26038C30.4542 5.31479 30.411 5.3794 30.3816 5.4505C30.3522 5.5216 30.337 5.59781 30.3371 5.67477C30.3371 5.83017 30.3988 5.9792 30.5087 6.08909C30.6186 6.19897 30.7676 6.2607 30.923 6.2607H32.2218V7.71664H29.3536C29.03 7.71664 28.7676 7.97914 28.7676 8.30258C28.7676 8.62609 29.03 8.88852 29.3536 8.88852H32.2218V10.3445H30.923C30.8461 10.3445 30.7698 10.3596 30.6987 10.3891C30.6276 10.4185 30.563 10.4617 30.5086 10.5161C30.4542 10.5705 30.411 10.6351 30.3816 10.7062C30.3522 10.7773 30.337 10.8535 30.3371 10.9305C30.3371 11.0859 30.3988 11.2349 30.5087 11.3448C30.6186 11.4547 30.7676 11.5164 30.923 11.5164H32.2218V12.9724H30.923C30.8461 12.9724 30.7698 12.9875 30.6987 13.017C30.6276 13.0464 30.563 13.0896 30.5086 13.144C30.4542 13.1984 30.411 13.263 30.3816 13.3341C30.3522 13.4052 30.337 13.4814 30.3371 13.5584C30.3371 13.7138 30.3988 13.8628 30.5087 13.9727C30.6186 14.0826 30.7676 14.1443 30.923 14.1443H32.2218V15.6H29.3536C29.1982 15.6 29.0491 15.6617 28.9392 15.7716C28.8294 15.8815 28.7676 16.0305 28.7676 16.1859C28.7676 16.3413 28.8294 16.4904 28.9392 16.6003C29.0491 16.7101 29.1982 16.7719 29.3536 16.7719H32.2218V18.2278H30.923C30.7676 18.2278 30.6186 18.2895 30.5087 18.3994C30.3988 18.5093 30.3371 18.6583 30.3371 18.8137C30.3371 19.1376 30.5993 19.3997 30.923 19.3997H32.2218V20.8557H30.923C30.7676 20.8557 30.6186 20.9174 30.5087 21.0273C30.3988 21.1372 30.3371 21.2862 30.3371 21.4416C30.3371 21.7655 30.5993 22.0276 30.923 22.0276H32.2218V23.4836H29.3536C29.03 23.4836 28.7676 23.7461 28.7676 24.0695C28.7676 24.393 29.03 24.6555 29.3536 24.6555H32.2218V26.1115H30.923C30.7676 26.1115 30.6186 26.1732 30.5087 26.2831C30.3988 26.393 30.3371 26.542 30.3371 26.6974C30.3371 26.8528 30.3988 27.0019 30.5087 27.1117C30.6186 27.2216 30.7676 27.2834 30.923 27.2834H32.2218V28.7393H30.923C30.7676 28.7393 30.6186 28.801 30.5087 28.9109C30.3988 29.0208 30.3371 29.1698 30.3371 29.3252C30.3371 29.4806 30.3988 29.6297 30.5087 29.7396C30.6186 29.8494 30.7676 29.9112 30.923 29.9112H32.2218V35.2057L30.7472 32.2266C30.4125 31.5509 29.7362 31.131 28.9821 31.131H26.4852V11.1648C26.4852 11.0094 26.4235 10.8604 26.3136 10.7505C26.2037 10.6406 26.0547 10.5789 25.8993 10.5789C25.7439 10.5789 25.5948 10.6406 25.4849 10.7505C25.3751 10.8604 25.3133 11.0094 25.3133 11.1648V31.131H14.5897C13.6922 31.131 12.9619 31.8613 12.9619 32.7588V38.3722C12.9619 39.2697 13.6922 40 14.5897 40H31.4229C32.1086 40 32.7343 39.6521 33.0962 39.0692C33.2329 38.8495 33.3251 38.6051 33.3678 38.3499C33.3846 38.295 33.3937 38.2366 33.3937 38.1763V38.0512C33.394 38.038 33.394 38.0249 33.3937 38.0118V29.3414C33.394 29.3359 33.394 29.3307 33.394 29.3252C33.394 29.32 33.394 29.3145 33.3937 29.309V26.7135C33.394 26.708 33.394 26.7028 33.394 26.6973C33.394 26.6921 33.394 26.6866 33.3937 26.6814V24.0859C33.394 24.0805 33.394 24.075 33.394 24.0698C33.394 24.0643 33.394 24.0588 33.3937 24.0536V21.458C33.394 21.4526 33.394 21.4473 33.394 21.4419C33.394 21.4367 33.394 21.4312 33.3937 21.426V18.8302C33.394 18.825 33.394 18.8195 33.394 18.8143C33.394 18.8088 33.394 18.8034 33.3937 18.7981V16.2027C33.394 16.1972 33.394 16.192 33.394 16.1864C33.394 16.1809 33.394 16.1758 33.3937 16.1702V13.5748C33.394 13.5693 33.394 13.5641 33.394 13.5586C33.394 13.5534 33.394 13.5479 33.3937 13.5427V10.9469C33.394 10.9417 33.394 10.9362 33.394 10.931C33.394 10.9255 33.394 10.9201 33.3937 10.9148V8.3193C33.394 8.31383 33.394 8.30867 33.394 8.30313C33.394 8.29797 33.394 8.2925 33.3937 8.28695V5.69086C33.394 5.68539 33.394 5.68 33.394 5.67477ZM31.4229 38.8281H14.5897C14.4688 38.828 14.3529 38.7799 14.2675 38.6944C14.182 38.609 14.1339 38.4931 14.1338 38.3722V32.7588C14.134 32.638 14.182 32.5221 14.2675 32.4366C14.353 32.3511 14.4689 32.3031 14.5897 32.3029H25.8843C25.8892 32.3031 25.8944 32.3031 25.8993 32.3031C25.9044 32.3031 25.9093 32.3031 25.9145 32.3029H28.9821C29.2876 32.3029 29.5614 32.4728 29.6968 32.7466L32.1376 37.6767C32.1883 37.7781 32.217 37.8891 32.2218 38.0023V38.0621C32.2216 38.0691 32.2213 38.0762 32.2207 38.0832C32.2176 38.1034 32.2155 38.1238 32.2143 38.1442C32.1978 38.2533 32.1591 38.3578 32.1004 38.4512C31.9518 38.6908 31.7049 38.8281 31.4229 38.8281Z" fill="#FCCF3C"/>
</g>
<defs>
<clipPath id="clip0_793_18954">
<rect width="40" height="40" fill="white"/>
</clipPath>
</defs>
</svg>
