<svg width="480" height="699" viewBox="0 0 480 699" fill="none" xmlns="http://www.w3.org/2000/svg">
<g opacity="0.5" filter="url(#filter0_d_1_2783)">
<path d="M63.2719 62.7392C13.2048 16.1018 -49.3478 3.7487 -86.8683 132.164C-137.097 304.073 -129.695 427.632 -68.2009 560.095C-20.0774 663.756 11.6811 574.138 70.3524 574.508C146.555 574.99 190.976 612.448 267.16 617.749C332.24 622.277 396.392 580.564 461.07 603.335C504.81 618.734 527.031 652.441 568.083 603.335C635.886 522.231 610.002 382.907 558.588 224.112C524.634 119.242 508.181 132.164 448.84 132.164C379.939 132.164 348.516 164.815 282.447 155.524C196.49 143.435 129.96 124.859 63.2719 62.7392Z" fill="url(#paint0_linear_1_2783)"/>
</g>
<defs>
<filter id="filter0_d_1_2783" x="-170" y="-3.8147e-06" width="829" height="699" filterUnits="userSpaceOnUse" color-interpolation-filters="sRGB">
<feFlood flood-opacity="0" result="BackgroundImageFix"/>
<feColorMatrix in="SourceAlpha" type="matrix" values="0 0 0 0 0 0 0 0 0 0 0 0 0 0 0 0 0 0 127 0" result="hardAlpha"/>
<feOffset dy="20"/>
<feGaussianBlur stdDeviation="25"/>
<feColorMatrix type="matrix" values="0 0 0 0 0 0 0 0 0 0 0 0 0 0 0 0 0 0 0.1 0"/>
<feBlend mode="normal" in2="BackgroundImageFix" result="effect1_dropShadow_1_2783"/>
<feBlend mode="normal" in="SourceGraphic" in2="effect1_dropShadow_1_2783" result="shape"/>
</filter>
<linearGradient id="paint0_linear_1_2783" x1="-227.948" y1="669.766" x2="360.857" y2="-216.695" gradientUnits="userSpaceOnUse">
<stop stop-color="#9796F0"/>
<stop offset="1" stop-color="#FFE0E8"/>
</linearGradient>
</defs>
</svg>
