<svg width="155" height="98" viewBox="0 0 155 98" fill="none" xmlns="http://www.w3.org/2000/svg">
<path d="M132.971 21.5742C129.145 27.4987 123.864 34.2103 117.127 41.709C110.407 49.2077 102.324 56.4186 92.8789 63.3418C83.4505 70.265 76.2396 73.4473 71.2461 72.8887C67.5729 72.6517 65.6178 71.3229 65.3809 68.9023C65.1608 66.4648 65.694 63.7565 66.9805 60.7773C69.0625 56.0039 71.627 51.5013 74.6738 47.2695C75.4525 46.0846 76.2396 44.8913 77.0352 43.6895C79.4727 39.9486 82.0033 36.2839 84.627 32.6953C80.7676 35.2005 74.987 40.0924 67.2852 47.3711C64.3737 50.2318 60.4974 53.9727 55.6562 58.5938C50.8151 63.2148 45.5931 68.0306 39.9902 73.041C35.5892 76.9512 31.3066 80.5566 27.1426 83.8574C25.9915 84.7715 24.849 85.6686 23.7148 86.5488C18.4674 90.5436 13.9987 93.3535 10.3086 94.9785C6.60156 96.6204 4.23177 96.3835 3.19922 94.2676C1.13411 89.2233 4.33333 78.2292 12.7969 61.2852C21.2604 44.3242 29.3685 30.7826 37.1211 20.6602C44.8906 10.5378 51.2383 4.24935 56.1641 1.79492C57.0612 1.15169 57.9499 0.931641 58.8301 1.13477C59.7272 1.33789 60.3874 1.82031 60.8105 2.58203C61.2507 3.34375 61.2253 4.24935 60.7344 5.29883C59.8711 6.99154 59.1855 8.21875 58.6777 8.98047C58.1868 9.74219 57.5859 10.5632 56.875 11.4434C56.2318 12.2728 55.2669 13.5508 53.9805 15.2773C53.4049 16.0052 52.7279 16.3945 51.9492 16.4453C51.1875 16.4961 50.502 16.3184 49.8926 15.9121C44.7129 21.6673 39.931 27.8203 35.5469 34.3711C31.1797 40.9049 27.151 47.4134 23.4609 53.8965C18.2305 62.8848 13.931 72.3132 10.5625 82.1816C9.29297 86.0579 9.25065 88.0892 10.4355 88.2754C11.6204 88.4785 14.625 86.7773 19.4492 83.1719C24.2734 79.5664 28.7337 76.0625 32.8301 72.6602C36.9434 69.2747 41.2259 65.4069 45.6777 61.0566C49.9941 56.8587 54.3698 52.7285 58.8047 48.666C60.7174 46.9056 62.6471 45.0859 64.5938 43.207C68.3346 39.4831 72.7441 35.5052 77.8223 31.2734C82.9004 27.0417 86.8613 24.9004 89.7051 24.8496C91.9395 24.8327 92.6842 26.373 91.9395 29.4707C91.1947 32.5684 88.5794 37.291 84.0938 43.6387C81.8763 46.4824 79.8027 49.4023 77.873 52.3984C77.5176 52.9909 77.1452 53.5833 76.7559 54.1758C75.6725 55.8516 74.5892 57.7135 73.5059 59.7617C72.4225 61.793 71.7031 63.4688 71.3477 64.7891C70.5013 67.4466 71.9401 68.3607 75.6641 67.5312C79.4049 66.6849 86.2689 62.2331 96.2559 54.1758C106.26 46.1185 117.525 34.6842 130.051 19.873C130.491 19.3145 131.007 19.069 131.6 19.1367C132.209 19.1875 132.674 19.4499 132.996 19.9238C133.335 20.3809 133.326 20.931 132.971 21.5742ZM154.4 50.5703C149.204 55.5638 143.525 59.9225 137.363 63.6465C135.366 64.8822 133.089 65.9909 130.533 66.9727C127.994 67.9375 125.531 68.1576 123.145 67.6328C121.113 67.0404 119.641 65.9993 118.727 64.5098C117.796 63.0202 117.355 61.3444 117.406 59.4824C117.457 57.6035 117.923 55.7923 118.803 54.0488C119.311 53.1009 120.148 52.0007 121.316 50.748C122.484 49.4954 123.805 48.4121 125.277 47.498C126.767 46.5671 128.316 46.0339 129.924 45.8984C131.549 45.7461 132.835 46.3639 133.783 47.752C134.816 49.4785 134.714 51.4251 133.479 53.5918C132.26 55.7585 130.618 57.5189 128.553 58.873C126.505 60.2272 124.456 61.1751 122.408 61.7168C123.119 62.9863 124.49 63.4688 126.521 63.1641C128.553 62.8424 130.906 62.0384 133.58 60.752C136.255 59.4486 138.929 57.9759 141.604 56.334C144.278 54.6751 146.614 53.1432 148.611 51.7383C150.626 50.3333 151.971 49.36 152.648 48.8184C153.072 48.5306 153.486 48.4629 153.893 48.6152C154.316 48.7676 154.595 49.0384 154.73 49.4277C154.883 49.8001 154.773 50.181 154.4 50.5703ZM126.699 52.0684C125.091 53.1178 123.805 54.5736 122.84 56.4355C123.923 56.0632 125.083 55.3691 126.318 54.3535C127.571 53.321 128.307 52.5423 128.527 52.0176C128.764 51.4928 128.705 51.2559 128.35 51.3066C127.994 51.3405 127.444 51.5944 126.699 52.0684Z" fill="#D4D4D4"/>
</svg>
